<svg xmlns="http://www.w3.org/2000/svg" version="1.1" xmlns:xlink="http://www.w3.org/1999/xlink" xmlns:svgjs="http://svgjs.com/svgjs" x="0" y="0" viewBox="0 0 20 20" style="enable-background:new 0 0 512 512" xml:space="preserve" class=""><g><g fill="#000" fill-rule="evenodd" clip-rule="evenodd"><path d="M9.383 3.076A1 1 0 0 1 10 4v12a1 1 0 0 1-1.707.707L4.586 13H2a1 1 0 0 1-1-1V8a1 1 0 0 1 1-1h2.586l3.707-3.707a1 1 0 0 1 1.09-.217zM14.657 2.929a1 1 0 0 1 1.414 0C17.88 4.737 19 7.239 19 9.999s-1.12 5.263-2.929 7.072a1 1 0 0 1-1.414-1.414A7.971 7.971 0 0 0 17 10c0-2.21-.894-4.208-2.343-5.657a1 1 0 0 1 0-1.414zm-2.829 2.828a1 1 0 0 1 1.415 0A5.983 5.983 0 0 1 15 10a5.984 5.984 0 0 1-1.757 4.243 1 1 0 0 1-1.415-1.415A3.984 3.984 0 0 0 13 10a3.983 3.983 0 0 0-1.172-2.828 1 1 0 0 1 0-1.415z" fill="#fff" data-original="#fff" class=""></path></g></g></svg>